<svg xmlns="http://www.w3.org/2000/svg" viewBox="0 0 256 256" role="img" aria-label="유사코드 favicon">
  <defs>
    <linearGradient id="g" x1="0" y1="0" x2="1" y2="1">
      <stop offset="0" stop-color="#6D5EF7"/>
      <stop offset="1" stop-color="#2EC8FF"/>
    </linearGradient>
  </defs>

  <!-- Chat bubble -->
  <path
    d="M64 52c-18.8 0-34 15.2-34 34v56c0 18.8 15.2 34 34 34h40l26.5 20.1c3.9 3 9.5.2 9.5-4.7V176h52c18.8 0 34-15.2 34-34V86c0-18.8-15.2-34-34-34H64z"
    fill="url(#g)"
  />

  <!-- Code brackets -->
  <path
    d="M106 104 86 128l20 24"
    fill="none"
    stroke="#FFFFFF"
    stroke-width="16"
    stroke-linecap="round"
    stroke-linejoin="round"
  />
  <path
    d="M150 104 170 128l-20 24"
    fill="none"
    stroke="#FFFFFF"
    stroke-width="16"
    stroke-linecap="round"
    stroke-linejoin="round"
  />

  <!-- Slash -->
  <path
    d="M141 100 115 156"
    fill="none"
    stroke="#FFFFFF"
    stroke-width="14"
    stroke-linecap="round"
    opacity="0.95"
  />
</svg>
